<svg version="1.1" id="Preferred" xmlns="http://www.w3.org/2000/svg" xmlns:xlink="http://www.w3.org/1999/xlink" x="0px" y="0px" viewBox="0 0 309 110" style="enable-background:new 0 0 309 110;" xml:space="preserve">
 <style type="text/css">
  .st0{fill:#FA4616;}
 </style>
 <g>
  <path class="st0" d="M0,0h110v110H0V0z M11.4,98.6h87.2V11.4H11.4V98.6z M55.4,28.4h11.4v33.3c0,15.1-8.5,24.1-23,24.1
		c-14.1,0-22.5-8.9-22.5-24.1V28.4h11.4v33.3c0,8.4,3.5,13.4,11.4,13.4c7.6,0,11.3-4.8,11.3-13.4V28.4z M88.4,28.4
		c0,4-2.9,6.8-7,6.8c-4,0-7-2.8-7-6.8c0-4.1,2.9-7,7-7C85.5,21.4,88.4,24.2,88.4,28.4z M75.8,40.6h11.4v44.7H75.8V40.6z M163.5,47.5
		c0,12.2-8.1,19.5-20.5,19.5h-10.3v18.4h-11.4V28.4h21.7C155.6,28.4,163.5,35.7,163.5,47.5z M152,47.5c0-6.2-3.6-9.9-10.1-9.9h-9.1
		v20.3h9.1C148.4,57.8,152,54.2,152,47.5z M201.8,40.6h11.4v44.7h-11.4v-5c-3,3.6-7.8,5.6-14.5,5.6c-12.1,0-20.7-9.5-20.7-22.9
		c0-13.2,8.4-23,20.7-23c6.5,0,11.5,2.3,14.5,6.2V40.6z M201.8,63c0-7.7-4.6-13-11.8-13c-7.3,0-11.8,5.1-11.8,13
		c0,7.4,4,12.9,11.8,12.9C197,75.8,201.8,70.8,201.8,63z M241,75.6h4.5v9.7h-6c-10.8,0-15.5-5.1-15.5-15.7V50.2h-5.3v-9.6h5.3V28.4
		h11.4v12.2h10v9.6h-10v19.5C235.4,73.6,236.6,75.6,241,75.6z M294.6,59.3v26h-11.4V60.6c0-6.8-3.5-11.2-10.2-11.2
		c-6.7,0-10.7,4.6-10.7,12.2v23.7h-11.4V25.6h11.4v19.6c2.8-3.4,7.3-5.2,13.5-5.2C286.4,39.9,294.6,47.6,294.6,59.3z M292.3,25.6h6
		v1.2h-2.2v7.1h-1.5v-7.1h-2.3V25.6z M309,25.6v8.3h-1.4v-6.2l-2.6,6.2h-1.1l-2.7-6.2v6.2H300v-8.3h1.7l2.7,6.5l2.8-6.5H309z">
  </path>
 </g>
</svg>